<?xml version="1.0" encoding="utf-8"?>
<!-- Generator: Adobe Illustrator 17.1.0, SVG Export Plug-In . SVG Version: 6.00 Build 0)  -->
<!DOCTYPE svg PUBLIC "-//W3C//DTD SVG 1.0//EN" "http://www.w3.org/TR/2001/REC-SVG-20010904/DTD/svg10.dtd">
<svg version="1.0" id="Capa_1" xmlns="http://www.w3.org/2000/svg" xmlns:xlink="http://www.w3.org/1999/xlink" x="0px" y="0px"
	 viewBox="0 0 313.228 32.502" enable-background="new 0 0 313.228 32.502" xml:space="preserve">
<g>
	<path fill="#FFFFFF" d="M11.668,17.426c0.632,0.663,1.124,1.227,2.337,1.862c1.596,0.879,3.23,1.157,4.636,1.157
		c2.37,0,4.427-1.122,4.427-2.774c0-1.9-2.424-2.215-4.201-2.457c-1.331-0.181-2.65-0.353-3.952-0.632
		c-1.474-0.284-6.48-1.338-6.48-6.536C8.435,1.827,13.953,0,18.114,0c5.567,0,8.57,2.704,10.643,4.568L24.333,7.73
		c-0.757-0.738-1.441-1.371-2.389-1.933c-0.863-0.491-2.391-1.056-3.919-1.056c-2.386,0-3.583,1.371-3.583,2.53
		c0,1.829,2.038,2.109,3.054,2.25c2.57,0.317,6.009,0.95,7.38,1.439c2.76,1.018,4.164,3.162,4.164,5.901
		c0,1.723-0.651,3.621-1.916,5.095c-2.177,2.53-5.654,3.233-9.028,3.233c-6.797,0-9.484-3.127-10.996-4.848L11.668,17.426z"/>
	<path fill="#FFFFFF" d="M79.727,0.563h10.853c2.513,0.033,5.657,0.071,7.871,2.457c1.124,1.263,1.916,3.2,1.916,5.375
		c0,4.848-3.322,6.045-4.954,6.639l5.565,9.63h-6.653l-4.78-8.607h-3.776v8.607h-6.042V0.563z M85.769,5.096v6.498h4.97
		c0.858-0.038,3.618-0.106,3.618-3.306c0-3.056-2.212-3.162-3.477-3.193H85.769z"/>
	<path fill="#FFFFFF" d="M121.205,0.563h5.885l5.217,8.885c1.916,3.371,2.494,4.465,3.616,6.571l-0.263-15.456h5.765v24.098h-5.904
		l-4.5-7.627c-2.194-3.583-2.598-4.321-4.23-7.512l0.169,15.138h-5.755V0.563z"/>
	<path fill="#FFFFFF" d="M175.449,0.564l8.868,24.098h-6.411l-1.19-3.863h-8.873l-1.192,3.863h-6.418l8.948-24.098H175.449z
		 M172.216,6.324c-0.315,1.227-0.654,2.459-0.999,3.689c-0.513,1.829-1.422,4.639-1.973,6.465h6.099L172.216,6.324z"/>
	<path fill="#FFFFFF" d="M226.543,0.563v24.098h-5.76l0.374-17.144l0.061-2.422l-0.209,0.842c-0.296,1.371-0.329,1.545-0.611,2.56
		l-4.533,16.164h-5.186l-4.349-15.491l-1.077-4.286c0.108,1.897,0.108,2.318,0.212,4.601l0.306,15.176h-5.838V0.563h8.802
		l3.686,13.521l0.86,3.87c0.336-1.688,0.371-1.867,0.632-2.988l3.87-14.403H226.543z"/>
	<polygon fill="#FFFFFF" points="244.763,0.563 262.553,0.563 262.553,5.233 250.775,5.233 250.775,9.627 261.787,9.627 
		261.787,14.19 250.775,14.19 250.775,19.92 263.63,19.92 263.63,24.662 244.763,24.662 	"/>
	<path fill="#FFFFFF" d="M288.76,17.426c0.609,0.663,1.131,1.227,2.318,1.862c1.601,0.879,3.242,1.157,4.636,1.157
		c2.391,0,4.448-1.122,4.448-2.774c0-1.9-2.424-2.215-4.208-2.457c-1.324-0.181-2.664-0.353-3.952-0.632
		c-1.477-0.284-6.48-1.338-6.48-6.536c0-6.219,5.525-8.045,9.686-8.045c5.567,0,8.544,2.704,10.643,4.568l-4.446,3.162
		c-0.738-0.738-1.422-1.371-2.393-1.933c-0.844-0.491-2.372-1.056-3.912-1.056c-2.389,0-3.583,1.371-3.583,2.53
		c0,1.829,2.06,2.109,3.068,2.25c2.57,0.317,6.007,0.95,7.378,1.439c2.767,1.018,4.152,3.162,4.152,5.901
		c0,1.723-0.649,3.621-1.897,5.095c-2.201,2.53-5.683,3.233-9.054,3.233c-6.776,0-9.489-3.127-10.965-4.848L288.76,17.426z"/>
	<path fill="#FFFFFF" d="M64.499,0.563v13.455c-0.035,2.318-0.073,4.636-1.389,6.813c-2.598,4.183-7.958,4.359-8.974,4.359
		c-1.808,0-3.952-0.423-5.605-1.265c-4.636-2.389-4.636-6.642-4.603-9.907V0.563h6.08v15.035c0,1.227,0.035,2.25,0.44,2.988
		c0.755,1.262,2.386,1.65,3.9,1.65c4.074,0,4.074-2.812,4.112-4.676V0.563H64.499z"/>
	<polygon fill="#FFFFFF" points="106.912,18.045 106.912,29.48 0,29.48 0,32.502 108.424,32.502 108.424,18.045 	"/>
	<polygon fill="#FFFFFF" points="147.875,18.045 147.875,29.48 113.243,29.48 113.243,32.502 149.386,32.502 149.386,18.045 	"/>
	<polygon fill="#FFFFFF" points="188.836,18.045 188.836,29.48 154.205,29.48 154.205,32.502 190.347,32.502 190.347,18.045 	"/>
	<polygon fill="#FFFFFF" points="229.796,18.045 229.796,29.48 195.164,29.48 195.164,32.502 231.307,32.502 231.307,18.045 	"/>
	<polygon fill="#FFFFFF" points="270.757,18.045 270.757,29.48 236.125,29.48 236.125,32.502 272.268,32.502 272.268,18.045 	"/>
	<polygon fill="#FFFFFF" points="311.717,18.045 311.717,29.48 277.085,29.48 277.085,32.502 313.228,32.502 313.228,18.045 	"/>
</g>
</svg>
